<svg width="16" height="16" xmlns="http://www.w3.org/2000/svg">

 <g>
  <title>background</title>
  <rect fill="none" id="canvas_background" height="18" width="18" y="-1" x="-1"/>
 </g>
 <g>
  <title>Layer 1</title>
  <path stroke="null" fill="#ffffff" transform="rotate(179.95355224609375 7.999999999999999,8.001848220825195) " id="svg_1" d="m14.836015,6.862512l-10.937624,0l2.631866,-2.631866c0.224449,-0.224449 0.330407,-0.492193 0.330407,-0.786142c0,-0.560553 -0.46314,-1.139336 -1.139336,-1.139336c-0.302494,0 -0.56625,0.109946 -0.786142,0.330407l-4.533417,4.533417c-0.186851,0.186851 -0.37712,0.417567 -0.37712,0.832855s0.158937,0.615241 0.368005,0.824309l4.542532,4.541962c0.219892,0.220461 0.483648,0.330407 0.786142,0.330407c0.676765,0 1.139336,-0.578783 1.139336,-1.139336c0,-0.293949 -0.105958,-0.561693 -0.330407,-0.786142l-2.631866,-2.631866l10.937624,0c0.628913,0 1.139336,-0.510422 1.139336,-1.139336s-0.510422,-1.139336 -1.139336,-1.139336z"/>
 </g>
</svg>